<?xml version="1.0" encoding="iso-8859-1"?>
<!-- Generator: Adobe Illustrator 18.1.1, SVG Export Plug-In . SVG Version: 6.00 Build 0)  -->
<svg version="1.1" id="Capa_1" xmlns="http://www.w3.org/2000/svg" xmlns:xlink="http://www.w3.org/1999/xlink" x="0px" y="0px"
	 viewBox="0 0 42.27 42.27" style="enable-background:new 0 0 42.27 42.27;" xml:space="preserve">
<g>
	<path style="fill:#010002;" d="M32.458,0.139C32.092,0.047,31.721,0,31.352,0c-5.542,0-8.865,10.4-9.003,10.844
		c-0.056,0.177-0.03,0.37,0.073,0.529c0.102,0.157,0.269,0.259,0.454,0.278c0.991,0.112,1.953,0.169,2.857,0.169
		c7.126,0,10.072-3.399,10.431-6.311C36.474,2.971,34.952,0.762,32.458,0.139z M34.921,5.357c-0.296,2.405-2.881,5.213-9.19,5.213
		c-0.621,0-1.272-0.028-1.937-0.085c0.859-2.362,3.695-9.235,7.557-9.235c0.267,0,0.537,0.034,0.805,0.102
		C34.016,1.816,35.154,3.464,34.921,5.357z"/>
	<path style="fill:#010002;" d="M16.103,11.82L16.103,11.82c0.904,0,1.865-0.057,2.855-0.169c0.186-0.02,0.352-0.121,0.455-0.279
		c0.102-0.158,0.128-0.351,0.072-0.528C19.346,10.401,16.024,0,10.482,0C10.113,0,9.74,0.047,9.375,0.139
		C6.881,0.762,5.359,2.971,5.671,5.51C6.029,8.419,8.976,11.818,16.103,11.82z M9.679,1.352c0.267-0.067,0.538-0.102,0.804-0.102
		c3.861,0,6.697,6.873,7.557,9.235c-0.665,0.057-1.315,0.085-1.937,0.085c-6.31-0.002-8.895-2.811-9.19-5.215
		C6.68,3.463,7.816,1.816,9.679,1.352z"/>
	<path style="fill:#010002;" d="M13.2,8.508c0.343,0,0.716-0.021,1.11-0.066c0.186-0.021,0.352-0.124,0.453-0.28
		c0.102-0.157,0.129-0.35,0.073-0.527c-0.138-0.442-1.42-4.322-3.734-4.322c-0.165,0-0.336,0.022-0.509,0.065
		c-1.11,0.277-1.814,1.3-1.675,2.432C9.072,7.054,10.285,8.508,13.2,8.508z M10.896,4.59c0.074-0.018,0.144-0.027,0.207-0.027
		c0.837,0,1.703,1.361,2.261,2.693c-0.055,0.001-0.109,0.002-0.164,0.002c-2.099,0-2.95-0.862-3.04-1.602
		C10.096,5.144,10.392,4.715,10.896,4.59z"/>
	<path style="fill:#010002;" d="M31.211,3.377c-0.172-0.043-0.343-0.065-0.508-0.065c-2.313,0-3.595,3.88-3.733,4.322
		c-0.056,0.178-0.03,0.37,0.073,0.527c0.102,0.156,0.267,0.259,0.454,0.28c0.394,0.044,0.767,0.066,1.11,0.066
		c2.914,0,4.127-1.453,4.28-2.697C33.025,4.678,32.321,3.654,31.211,3.377z M28.582,7.257c-0.046,0-0.093-0.001-0.141-0.002
		c0.556-1.329,1.424-2.688,2.274-2.688c0.064,0,0.129,0.008,0.192,0.023c0.504,0.125,0.801,0.554,0.738,1.066
		C31.554,6.395,30.698,7.257,28.582,7.257z"/>
	<path style="fill:#010002;" d="M1.555,14.109v5.506c0,0.345,0.28,0.625,0.625,0.625h16.279c0.345,0,0.625-0.28,0.625-0.625v-5.506
		c0-0.345-0.28-0.625-0.625-0.625H2.18C1.835,13.484,1.555,13.765,1.555,14.109z M2.805,14.734h15.029v4.256H2.805V14.734z"/>
	<path style="fill:#010002;" d="M40.714,19.615v-5.506c0-0.345-0.28-0.625-0.625-0.625h-16.28c-0.345,0-0.625,0.28-0.625,0.625
		v5.506c0,0.345,0.28,0.625,0.625,0.625h16.28C40.433,20.24,40.714,19.96,40.714,19.615z M39.464,18.99h-15.03v-4.256h15.03V18.99z"
		/>
	<path style="fill:#010002;" d="M23.809,21.768c-0.345,0-0.625,0.28-0.625,0.625v19.252c0,0.345,0.28,0.625,0.625,0.625h14.211
		c0.345,0,0.625-0.28,0.625-0.625V22.393c0-0.345-0.28-0.625-0.625-0.625H23.809z M37.396,41.02H24.434V23.018h12.961V41.02z"/>
	<path style="fill:#010002;" d="M18.458,21.768H4.249c-0.345,0-0.625,0.28-0.625,0.625v19.252c0,0.345,0.28,0.625,0.625,0.625
		h14.209c0.345,0,0.625-0.28,0.625-0.625V22.393C19.083,22.048,18.804,21.768,18.458,21.768z M17.833,41.02H4.874V23.018h12.959
		V41.02z"/>
</g>
<g>
</g>
<g>
</g>
<g>
</g>
<g>
</g>
<g>
</g>
<g>
</g>
<g>
</g>
<g>
</g>
<g>
</g>
<g>
</g>
<g>
</g>
<g>
</g>
<g>
</g>
<g>
</g>
<g>
</g>
</svg>
